# xmcd
# 
# Track frame offsets:
#     150
#     20542
#     35495
#     54670
#     75595
#     94592
#     114227
#     135885
#     156322
#     177340
# 
# Disc length: 2571
# 
# Revision: 7
# Processed by: cddbd v1.5.2PL0 Copyright (c) Steve Scherf et al.
# Submitted via: fre:ac v1.0.31
# 
DISCID=720a090a
DTITLE=THE ALFEE - SINGLE HISTORY VOL.II 1983-1986 Disc 1
DYEAR=1994
DGENRE=JPop
TTITLE0=暁のパラダイス・ロード
TTITLE1=祈り
TTITLE2=メリーアン
TTITLE3=ラジカル・ティーンエイジャー
TTITLE4=星空のディスタンス
TTITLE5=DOWNTOWN STREET
TTITLE6=STARSHIP －光を求めて－
TTITLE7=愛の鼓動
TTITLE8=恋人達のペイヴメント
TTITLE9=ロールオーバー・イエスタデイ
EXTD=1994.11.20
EXTT0=
EXTT1=
EXTT2=
EXTT3=
EXTT4=
EXTT5=
EXTT6=
EXTT7=
EXTT8=
EXTT9=
PLAYORDER=
